<svg width="26" height="26" viewBox="0 0 26 26" fill="none" xmlns="http://www.w3.org/2000/svg">
											<path d="M10.3458 25.7292H1.35412C0.758283 25.7292 0.270782 25.2417 0.270782 24.6458V9.69583C0.270782 9.42499 0.379116 9.09999 0.595783 8.93749L9.58745 0.541659C9.91245 0.270825 10.3458 0.162492 10.725 0.324992C11.1583 0.541659 11.375 0.920825 11.375 1.35416V24.7C11.375 25.2417 10.8875 25.7292 10.3458 25.7292ZM2.38328 23.6167H9.26245V3.79166L2.38328 10.1833V23.6167Z" fill="white"/>
											<path d="M24.6458 25.7292H10.2916C9.69578 25.7292 9.20828 25.2417 9.20828 24.6458V11.9167C9.20828 11.3208 9.69578 10.8333 10.2916 10.8333H24.6458C25.2416 10.8333 25.7291 11.3208 25.7291 11.9167V24.7C25.7291 25.2417 25.2416 25.7292 24.6458 25.7292ZM11.375 23.6167H23.6166V12.9458H11.375V23.6167Z" fill="white"/>
											<path d="M19.5541 25.7292H15.3833C14.7874 25.7292 14.2999 25.2417 14.2999 24.6458V18.0375C14.2999 17.4417 14.7874 16.9542 15.3833 16.9542H19.5541C20.1499 16.9542 20.6374 17.4417 20.6374 18.0375V24.6458C20.6374 25.2417 20.1499 25.7292 19.5541 25.7292ZM16.4666 23.6167H18.5249V19.1208H16.4666V23.6167Z" fill="white"/>
										</svg>