<svg width="28" height="19" viewBox="0 0 28 19" fill="none" xmlns="http://www.w3.org/2000/svg">
											<path d="M23.1 8.03846C25.7498 8.03846 28 10.2859 28 13.1538V17.5385H25.9V19H24.5V17.5385H3.5V19H2.1V17.5385H0V13.1538C0 10.3876 2.17398 8.03846 4.9 8.03846H23.1ZM21.7 0C23.5821 0 25.2005 1.57962 25.2 3.65385L25.2005 7.14522C24.5639 6.78083 23.8517 6.57692 23.1 6.57692L21.7 6.57618C21.7 5.32466 20.7184 4.38462 19.6 4.38462H15.4C14.8622 4.38462 14.3716 4.59567 14.0001 4.94278C13.629 4.59593 13.1381 4.38462 12.6 4.38462H8.4C7.24044 4.38462 6.30038 5.36575 6.3 6.57619L4.9 6.57692C4.14851 6.57692 3.43653 6.7807 2.8 7.14488V3.65385C2.8 1.68899 4.3096 0 6.3 0H21.7ZM12.6 5.84579C12.9799 5.84579 13.3 6.21117 13.3 6.57692L7.7 6.57618C7.7 6.12909 8.04101 5.84615 8.4 5.84615L12.6 5.84579ZM19.6 5.85107C19.9961 5.84578 20.2996 6.20175 20.3 6.57618H14.7C14.7 6.1227 15.041 5.84615 15.4 5.84615L19.6 5.85107Z" fill="#3B4CB8"/>
										</svg>