<svg width="28" height="28" viewBox="0 0 28 28" fill="none" xmlns="http://www.w3.org/2000/svg">
	<path d="M22.4604 3.84888H5.31685C4.64745 3.84961 4.00568 4.11586 3.53234 4.58919C3.059 5.06253 2.79276 5.7043 2.79202 6.3737V18.1562C2.79276 18.8256 3.059 19.4674 3.53234 19.9407C4.00568 20.4141 4.64745 20.6803 5.31685 20.6811C5.54002 20.6812 5.75401 20.7699 5.91181 20.9277C6.06961 21.0855 6.15832 21.2995 6.15846 21.5227V23.3168C6.15846 23.6215 6.24115 23.9204 6.39771 24.1818C6.55427 24.4431 6.77882 24.6571 7.04744 24.8009C7.31605 24.9446 7.61864 25.0128 7.92295 24.9981C8.22726 24.9834 8.52186 24.8863 8.77536 24.7173L14.6173 20.8224C14.7554 20.7299 14.9179 20.6807 15.0841 20.6811H19.187C19.7383 20.68 20.2743 20.4994 20.7137 20.1664C21.1531 19.8335 21.472 19.3664 21.6222 18.8359L24.8965 7.05011C24.9999 6.67481 25.0152 6.28074 24.9413 5.89856C24.8675 5.51637 24.7064 5.15639 24.4707 4.84663C24.235 4.53687 23.9309 4.28568 23.5823 4.11263C23.2336 3.93957 22.8497 3.84931 22.4604 3.84888ZM23.2733 6.60304L20.0006 18.3847C19.95 18.5614 19.8432 18.7168 19.6964 18.8275C19.5496 18.9381 19.3708 18.9979 19.187 18.9978H15.0841C14.5856 18.9972 14.0981 19.1448 13.6836 19.4219L7.84168 23.3168V21.5227C7.84094 20.8533 7.5747 20.2115 7.10136 19.7382C6.62802 19.2648 5.98625 18.9986 5.31685 18.9978C5.09368 18.9977 4.87969 18.909 4.72189 18.7512C4.56409 18.5934 4.47537 18.3794 4.47524 18.1562V6.3737C4.47537 6.15054 4.56409 5.93655 4.72189 5.77874C4.87969 5.62094 5.09368 5.53223 5.31685 5.5321H22.4604C22.5905 5.53243 22.7188 5.56277 22.8352 5.62076C22.9517 5.67875 23.0532 5.76283 23.1318 5.86646C23.2105 5.97008 23.2641 6.09045 23.2887 6.21821C23.3132 6.34597 23.3079 6.47766 23.2733 6.60304Z" fill="#3B4CB8"/>
	<path d="M7.84167 11.4233H12.0497C12.2729 11.4233 12.487 11.3347 12.6448 11.1768C12.8027 11.019 12.8913 10.8049 12.8913 10.5817C12.8913 10.3585 12.8027 10.1444 12.6448 9.98661C12.487 9.82878 12.2729 9.74011 12.0497 9.74011H7.84167C7.61846 9.74011 7.4044 9.82878 7.24656 9.98661C7.08873 10.1444 7.00006 10.3585 7.00006 10.5817C7.00006 10.8049 7.08873 11.019 7.24656 11.1768C7.4044 11.3347 7.61846 11.4233 7.84167 11.4233Z" fill="#3B4CB8"/>
	<path d="M15.4162 13.1066H7.84167C7.61846 13.1066 7.4044 13.1952 7.24656 13.3531C7.08873 13.5109 7.00006 13.725 7.00006 13.9482C7.00006 14.1714 7.08873 14.3855 7.24656 14.5433C7.4044 14.7011 7.61846 14.7898 7.84167 14.7898H15.4162C15.6394 14.7898 15.8534 14.7011 16.0113 14.5433C16.1691 14.3855 16.2578 14.1714 16.2578 13.9482C16.2578 13.725 16.1691 13.5109 16.0113 13.3531C15.8534 13.1952 15.6394 13.1066 15.4162 13.1066Z" fill="#3B4CB8"/>
</svg>