<svg width="24" height="16" viewBox="0 0 24 16" fill="none" xmlns="http://www.w3.org/2000/svg">
<path d="M22.8559 4.49675C21.3906 3.03139 19.6817 1.89671 17.7768 1.12424C15.9372 0.378271 13.9935 0 11.9998 0C10.0061 0 8.06245 0.378271 6.22283 1.12424C4.31792 1.89671 2.60904 3.03139 1.14367 4.49675C0.890918 4.74947 0.890918 5.15923 1.14363 5.41203L3.03417 7.30265C3.15554 7.42403 3.32019 7.49224 3.49178 7.49224H3.49183C3.66347 7.49224 3.82807 7.42407 3.94945 7.30265C6.09977 5.15242 8.95879 3.9682 11.9998 3.9682C15.0407 3.9682 17.8997 5.15242 20.05 7.30265C20.1714 7.42403 20.336 7.49224 20.5076 7.49224C20.6792 7.49224 20.8439 7.42407 20.9652 7.30265L22.8557 5.41203C23.1087 5.15928 23.1087 4.74951 22.8559 4.49675Z" fill="#3B4CB8"/>
<path d="M11.9998 5.34747C9.32727 5.34747 6.81468 6.38818 4.92492 8.27794C4.67217 8.53065 4.67217 8.94042 4.92488 9.19321L6.81542 11.0838C7.06817 11.3366 7.47794 11.3365 7.7307 11.0839C8.87103 9.94367 10.3871 9.31575 11.9997 9.31575C13.6123 9.31575 15.1284 9.94371 16.2687 11.0839C16.3901 11.2053 16.5547 11.2735 16.7264 11.2735C16.898 11.2735 17.0626 11.2053 17.184 11.0839L19.0744 9.19317C19.3271 8.94046 19.3271 8.53069 19.0744 8.27794C17.1848 6.38818 14.6723 5.34747 11.9998 5.34747Z" fill="#3B4CB8"/>
<path d="M11.9998 10.6951C10.7557 10.6951 9.58601 11.1796 8.70619 12.0592C8.58482 12.1806 8.5166 12.3453 8.5166 12.5169C8.5166 12.6885 8.58477 12.8532 8.70619 12.9745L11.5421 15.8105C11.6685 15.9369 11.8341 16 11.9997 16C12.1653 16 12.331 15.9368 12.4574 15.8105L15.2934 12.9745C15.4148 12.8531 15.483 12.6885 15.483 12.5169C15.483 12.3453 15.4148 12.1806 15.2934 12.0593C14.4136 11.1796 13.2439 10.6951 11.9998 10.6951Z" fill="#3B4CB8"/>
</svg>